<svg xmlns="http://www.w3.org/2000/svg" viewBox="0 0 512 512" fill="none">
  <rect width="512" height="512" rx="96" fill="#001628"/>
  <g transform="translate(46, 120) scale(3.5)">
    <path fill="#99D9D9" d="M10,90l26.48-39.76h.31s4.54,5.02,4.54,5.02l.32-.16,23.06-37.14,17.34,28.63,3.65-4.61,30.22,48.03h-8.43c-7.17-12.26-15.51-24.35-23.06-36.26-1.43.52-2.03,3.6-3.49,3.97l-16.31-25.93-21.87,34.36-5.09-5.01-19.48,28.87h-8.19Z"/>
    <path fill="#99D9D9" d="M89.84,90h-5.73c-6.34-8.18-12.93-16.89-19.64-24.65-6.66,8.19-13.04,16.6-19.89,24.65h-5.81l25.69-39.76,25.37,39.76Z"/>
  </g>
</svg>
